<svg width="18" height="21" viewBox="0 0 18 21" fill="none" xmlns="http://www.w3.org/2000/svg">
<path d="M8.99912 21C6.61578 21 4.56995 20.2083 2.86162 18.625C1.15328 17.0416 0.207449 15.0833 0.024116 12.75C0.00744929 12.55 0.0699493 12.375 0.211616 12.225C0.353283 12.075 0.532449 12 0.749116 12C0.949116 12 1.11995 12.0708 1.26162 12.2125C1.40328 12.3541 1.49078 12.5333 1.52412 12.75C1.70745 14.6666 2.50745 16.2708 3.92412 17.5625C5.34078 18.8541 7.03245 19.5 8.99912 19.5C11.0824 19.5 12.8533 18.7708 14.3116 17.3125C15.7699 15.8541 16.4991 14.0833 16.4991 12C16.4991 9.91662 15.7908 8.14578 14.3741 6.68745C12.9574 5.22912 11.2074 4.49995 9.12412 4.49995H8.57412L9.87412 5.79995C10.0241 5.94995 10.0991 6.12495 10.0991 6.32495C10.0991 6.52495 10.0241 6.69995 9.87412 6.84995C9.72412 6.99995 9.54912 7.07495 9.34912 7.07495C9.14912 7.07495 8.97412 6.99995 8.82412 6.84995L6.19912 4.22495C6.11578 4.14162 6.05745 4.05828 6.02412 3.97495C5.99078 3.89162 5.97412 3.79995 5.97412 3.69995C5.97412 3.59995 5.99078 3.50828 6.02412 3.42495C6.05745 3.34162 6.11578 3.25828 6.19912 3.17495L8.84912 0.524951C8.98245 0.391618 9.14912 0.324951 9.34912 0.324951C9.54912 0.324951 9.72412 0.391618 9.87412 0.524951C10.0074 0.674951 10.0741 0.849951 10.0741 1.04995C10.0741 1.24995 10.0074 1.41662 9.87412 1.54995L8.42412 2.99995H8.99912C10.2491 2.99995 11.4199 3.23328 12.5116 3.69995C13.6033 4.16662 14.5574 4.80828 15.3741 5.62495C16.1908 6.44162 16.8324 7.39578 17.2991 8.48745C17.7658 9.57912 17.9991 10.75 17.9991 12C17.9991 13.25 17.7658 14.4208 17.2991 15.5125C16.8324 16.6041 16.1908 17.5583 15.3741 18.375C14.5574 19.1916 13.6033 19.8333 12.5116 20.2999C11.4199 20.7666 10.2491 21 8.99912 21Z" fill="#333333"/>
</svg>
